<?xml version="1.0" encoding="utf-8"?>
<svg width="25px" height="25px" viewBox="0 0 25 25" version="1.1" xmlns:xlink="http://www.w3.org/1999/xlink" xmlns="http://www.w3.org/2000/svg">
  <defs>
    <linearGradient x1="6.3837824E-16" y1="0.5" x2="1" y2="0.5" id="gradient_1">
      <stop offset="0%" stop-color="#00C642" />
      <stop offset="100%" stop-color="#006638" />
    </linearGradient>
  </defs>
  <g id="Group-2">
    <path d="M5 5L20 5L20 20L5 20L5 5Z" id="ViewBox" fill="url(#gradient_1)" fill-rule="evenodd" stroke="none" />
    <g id="Group">
      <path d="M25 12.5C25 19.4036 19.4036 25 12.5 25C5.59644 25 8.45442e-16 19.4036 0 12.5C-8.45442e-16 5.59644 5.59644 1.26816e-15 12.5 0C19.4036 -1.26816e-15 25 5.59644 25 12.5ZM18.7969 7.76562C18.5714 7.5409 18.2641 7.4176 17.9458 7.42408C17.6275 7.43056 17.3256 7.56627 17.1094 7.8L11.6828 14.7141L8.41251 11.4422C7.95078 11.0119 7.23125 11.0246 6.78498 11.4709C6.33871 11.9172 6.32601 12.6367 6.75626 13.0984L10.8906 17.2344C11.1157 17.459 11.4223 17.5825 11.7402 17.5767C12.0581 17.5708 12.36 17.4359 12.5766 17.2031L18.8141 9.40625C19.2564 8.94633 19.2495 8.21703 18.7984 7.76562L18.7969 7.76562Z" id="Shape" fill="#FFFFFF" stroke="none" />
    </g>
  </g>
</svg>