<?xml version="1.0" encoding="utf-8"?>
<svg width="56px" height="62px" viewBox="0 0 56 62" version="1.1" xmlns:xlink="http://www.w3.org/1999/xlink" xmlns="http://www.w3.org/2000/svg">
  <g id="Group-31" transform="translate(1 1)">
    <path d="M47.6667 7L43 7L43 2L47.6667 2C48.9552 2 50 3.11922 50 4.5C50 5.88078 48.9552 7 47.6667 7Z" id="Stroke-1" fill="none" fill-rule="evenodd" stroke="#006638" stroke-width="2" stroke-linecap="round" stroke-linejoin="round" />
    <path d="M43 7L49.4286 7C50.8486 7 52 8.07445 52 9.4L52 10.6C52 11.9256 50.8486 13 49.4286 13L43 13L43 7Z" id="Stroke-3" fill="none" fill-rule="evenodd" stroke="#006638" stroke-width="2" stroke-linecap="round" stroke-linejoin="round" />
    <path d="M47 0L47 2" id="Stroke-5" fill="none" fill-rule="evenodd" stroke="#006638" stroke-width="2" stroke-linecap="round" stroke-linejoin="round" />
    <path d="M47 16L47 14" id="Stroke-7" fill="none" fill-rule="evenodd" stroke="#006638" stroke-width="2" stroke-linecap="round" stroke-linejoin="round" />
    <path d="M42 2.0002L43 2.0002" id="Stroke-9" fill="none" fill-rule="evenodd" stroke="#006638" stroke-width="2" stroke-linecap="round" stroke-linejoin="round" />
    <path d="M42 13.0002L43 13.0002" id="Stroke-11" fill="none" fill-rule="evenodd" stroke="#006638" stroke-width="2" stroke-linecap="round" stroke-linejoin="round" />
    <path d="M6.00015 20L0 33.1997L6.00015 44L12 33.1997L6.00015 20Z" id="Stroke-13" fill="none" fill-rule="evenodd" stroke="#006638" stroke-width="2" stroke-linecap="round" stroke-linejoin="round" />
    <path d="M1 34L6.5 37L12 34" id="Stroke-15" fill="none" fill-rule="evenodd" stroke="#006638" stroke-width="2" stroke-linecap="round" stroke-linejoin="round" />
    <path d="M54 45.6923L54 45.6923C54 43.6531 52.433 42 50.5 42C48.567 42 47 43.6531 47 45.6923C47 47.7315 48.567 49.3846 50.5 49.3846C52.433 49.3846 54 51.0377 54 53.0769L54 54.3077C54 56.3469 52.433 58 50.5 58C48.567 58 47 56.3469 47 54.3077" id="Stroke-17" fill="none" fill-rule="evenodd" stroke="#00C642" stroke-width="2" stroke-linecap="round" stroke-linejoin="round" />
    <path d="M50 60L50 58" id="Stroke-19" fill="none" fill-rule="evenodd" stroke="#00C642" stroke-width="2" stroke-linecap="round" stroke-linejoin="round" />
    <path d="M50 41L50 39" id="Stroke-21" fill="none" fill-rule="evenodd" stroke="#00C642" stroke-width="2" stroke-linecap="round" stroke-linejoin="round" />
    <path d="M22.7869 40C19.7807 36.3378 19.0512 31.1222 21.3644 26.6555C24.4787 20.6419 31.9314 18.266 38 21.3521" id="Stroke-23" fill="none" fill-rule="evenodd" stroke="#006638" stroke-width="2" stroke-linecap="round" stroke-linejoin="round" />
    <path d="M41.2131 24C44.2193 27.6622 44.9488 32.8778 42.6356 37.3445C39.5213 43.3581 32.0686 45.734 26 42.6479" id="Stroke-25" fill="none" fill-rule="evenodd" stroke="#006638" stroke-width="2" stroke-linecap="round" stroke-linejoin="round" />
    <path d="M36.4797 16L37 20.6975L33 23" id="Stroke-27" fill="none" fill-rule="evenodd" stroke="#006638" stroke-width="2" stroke-linecap="round" stroke-linejoin="round" />
    <path d="M26.5203 47L26 42.3025L30 40" id="Stroke-29" fill="none" fill-rule="evenodd" stroke="#006638" stroke-width="2" stroke-linecap="round" stroke-linejoin="round" />
  </g>
</svg>