<?xml version="1.0" encoding="utf-8"?>
<svg width="70.049805px" height="53px" viewBox="0 0 70.049805 53" version="1.1" xmlns:xlink="http://www.w3.org/1999/xlink" xmlns="http://www.w3.org/2000/svg">
  <g id="Group-47" transform="translate(1 1)">
    <path d="M68.0499 39C68.0499 45.6274 62.4535 51 55.5498 51C48.6462 51 43.0498 45.6274 43.0498 39C43.0498 32.3726 48.6462 27 55.5498 27C62.4535 27 68.0499 32.3726 68.0499 39Z" id="Stroke-1" fill="none" fill-rule="evenodd" stroke="#006638" stroke-width="2" stroke-linecap="round" stroke-linejoin="round" />
    <path d="M57.7165 38L53.0498 38L53.0498 33L57.7165 33C59.0052 33 60.0498 34.1192 60.0498 35.5C60.0498 36.8808 59.0052 38 57.7165 38Z" id="Stroke-3" fill="none" fill-rule="evenodd" stroke="#006638" stroke-width="2" stroke-linecap="round" stroke-linejoin="round" />
    <path d="M53.0498 38L58.7641 38C60.0265 38 61.0498 39.0745 61.0498 40.4L61.0498 41.6C61.0498 42.9255 60.0265 44 58.7641 44L53.0498 44L53.0498 38Z" id="Stroke-5" fill="none" fill-rule="evenodd" stroke="#006638" stroke-width="2" stroke-linecap="round" stroke-linejoin="round" />
    <path d="M56.05 31L56.05 33" id="Stroke-7" fill="none" fill-rule="evenodd" stroke="#006638" stroke-width="2" stroke-linecap="round" stroke-linejoin="round" />
    <path d="M56.05 46L56.05 44" id="Stroke-9" fill="none" fill-rule="evenodd" stroke="#006638" stroke-width="2" stroke-linecap="round" stroke-linejoin="round" />
    <path d="M52.0498 33L53.0498 33" id="Stroke-11" fill="none" fill-rule="evenodd" stroke="#006638" stroke-width="2" stroke-linecap="round" stroke-linejoin="round" />
    <path d="M52.0498 44L53.0498 44" id="Stroke-13" fill="none" fill-rule="evenodd" stroke="#006638" stroke-width="2" stroke-linecap="round" stroke-linejoin="round" />
    <path d="M0.0500001 25L0.0500001 47" id="Stroke-15" fill="none" fill-rule="evenodd" stroke="#006638" stroke-width="2" stroke-linecap="round" stroke-linejoin="round" />
    <path d="M7.05 30L7.05 47" id="Stroke-17" fill="none" fill-rule="evenodd" stroke="#006638" stroke-width="2" stroke-linecap="round" stroke-linejoin="round" />
    <path d="M15.05 22L15.05 48" id="Stroke-19" fill="none" fill-rule="evenodd" stroke="#006638" stroke-width="2" stroke-linecap="round" stroke-linejoin="round" />
    <path d="M22.0494 12L22.0506 46" id="Stroke-21" fill="none" fill-rule="evenodd" stroke="#006638" stroke-width="2" stroke-linecap="round" stroke-linejoin="round" />
    <path d="M29.05 17L29.05 46" id="Stroke-23" fill="none" fill-rule="evenodd" stroke="#006638" stroke-width="2" stroke-linecap="round" stroke-linejoin="round" />
    <path d="M36.05 25L36.05 47" id="Stroke-25" fill="none" fill-rule="evenodd" stroke="#006638" stroke-width="2" stroke-linecap="round" stroke-linejoin="round" />
    <path d="M45.05 19L45.05 28" id="Stroke-27" fill="none" fill-rule="evenodd" stroke="#006638" stroke-width="2" stroke-linecap="round" stroke-linejoin="round" />
    <path d="M52.063 11L52.037 23" id="Stroke-29" fill="none" fill-rule="evenodd" stroke="#006638" stroke-width="2" stroke-linecap="round" stroke-linejoin="round" />
    <path d="M51.0498 4L39.0498 16" id="Stroke-39" fill="none" fill-rule="evenodd" stroke="#006638" stroke-width="2" stroke-linecap="round" stroke-linejoin="round" />
    <path d="M36.0498 16L25.0498 7" id="Stroke-41" fill="none" fill-rule="evenodd" stroke="#006638" stroke-width="2" stroke-linecap="round" stroke-linejoin="round" />
    <path d="M21.0498 8L9.0498 21" id="Stroke-43" fill="none" fill-rule="evenodd" stroke="#006638" stroke-width="2" stroke-linecap="round" stroke-linejoin="round" />
    <path d="M5.04982 22L0.0498047 19" id="Stroke-45" fill="none" fill-rule="evenodd" stroke="#006638" stroke-width="2" stroke-linecap="round" stroke-linejoin="round" />
    <path d="M10.0498 23.5C10.0498 24.8808 8.9306 26 7.54981 26C6.16903 26 5.0498 24.8808 5.0498 23.5C5.0498 22.1192 6.16903 21 7.54981 21C8.9306 21 10.0498 22.1192 10.0498 23.5Z" id="Stroke-31" fill="none" fill-rule="evenodd" stroke="#00C642" stroke-width="2" stroke-linecap="round" stroke-linejoin="round" />
    <path d="M25.0498 5.5C25.0498 6.88078 23.9306 8 22.5498 8C21.169 8 20.0498 6.88078 20.0498 5.5C20.0498 4.11922 21.169 3 22.5498 3C23.9306 3 25.0498 4.11922 25.0498 5.5Z" id="Stroke-33" fill="none" fill-rule="evenodd" stroke="#00C642" stroke-width="2" stroke-linecap="round" stroke-linejoin="round" />
    <path d="M40.0498 18.5C40.0498 19.8808 38.9306 21 37.5498 21C36.169 21 35.0498 19.8808 35.0498 18.5C35.0498 17.1192 36.169 16 37.5498 16C38.9306 16 40.0498 17.1192 40.0498 18.5Z" id="Stroke-35" fill="none" fill-rule="evenodd" stroke="#00C642" stroke-width="2" stroke-linecap="round" stroke-linejoin="round" />
    <path d="M56.0498 2.5C56.0498 3.88078 54.9306 5 53.5498 5C52.169 5 51.0498 3.88078 51.0498 2.5C51.0498 1.11922 52.169 0 53.5498 0C54.9306 0 56.0498 1.11922 56.0498 2.5Z" id="Stroke-37" fill="none" fill-rule="evenodd" stroke="#00C642" stroke-width="2" stroke-linecap="round" stroke-linejoin="round" />
  </g>
</svg>