<?xml version="1.0" encoding="utf-8"?>
<svg width="40.09961px" height="36.100098px" viewBox="0 0 40.09961 36.100098" version="1.1" xmlns:xlink="http://www.w3.org/1999/xlink" xmlns="http://www.w3.org/2000/svg">
  <g id="Group-25" transform="translate(1 1)">
    <path d="M0.0498047 3.05005C0.0498047 1.39188 1.39164 0.0500488 3.0498 0.0500488" id="Stroke-1" fill="none" fill-rule="evenodd" stroke="#FFFFFF" stroke-width="2" stroke-linecap="round" stroke-linejoin="round" />
    <path d="M38.0498 3.05005C38.0498 1.39188 36.708 0.0500488 35.0498 0.0500488" id="Stroke-3" fill="none" fill-rule="evenodd" stroke="#FFFFFF" stroke-width="2" stroke-linecap="round" stroke-linejoin="round" />
    <path d="M0.0498047 23.05C0.0498047 24.7082 1.39164 26.05 3.0498 26.05" id="Stroke-5" fill="none" fill-rule="evenodd" stroke="#FFFFFF" stroke-width="2" stroke-linecap="round" stroke-linejoin="round" />
    <path d="M38.0498 23.05C38.0498 24.7082 36.708 26.05 35.0498 26.05" id="Stroke-7" fill="none" fill-rule="evenodd" stroke="#FFFFFF" stroke-width="2" stroke-linecap="round" stroke-linejoin="round" />
    <path d="M3.0498 0.05L37.0498 0.05" id="Stroke-9" fill="none" fill-rule="evenodd" stroke="#FFFFFF" stroke-width="2" stroke-linecap="round" stroke-linejoin="round" />
    <path d="M38.05 2.05005L38.05 22.05" id="Stroke-11" fill="none" fill-rule="evenodd" stroke="#FFFFFF" stroke-width="2" stroke-linecap="round" stroke-linejoin="round" />
    <path d="M37.0498 26.05L3.0498 26.05" id="Stroke-13" fill="none" fill-rule="evenodd" stroke="#FFFFFF" stroke-width="2" stroke-linecap="round" stroke-linejoin="round" />
    <path d="M0.05 2.05005L0.05 22.05" id="Stroke-15" fill="none" fill-rule="evenodd" stroke="#FFFFFF" stroke-width="2" stroke-linecap="round" stroke-linejoin="round" />
    <path d="M16.05 26.05L16.05 34.05" id="Stroke-17" fill="none" fill-rule="evenodd" stroke="#FFFFFF" stroke-width="2" stroke-linecap="round" stroke-linejoin="round" />
    <path d="M22.05 26.05L22.05 34.05" id="Stroke-19" fill="none" fill-rule="evenodd" stroke="#FFFFFF" stroke-width="2" stroke-linecap="round" stroke-linejoin="round" />
    <path d="M11.0498 34.05L29.0498 34.05" id="Stroke-21" fill="none" fill-rule="evenodd" stroke="#FFFFFF" stroke-width="2" stroke-linecap="round" stroke-linejoin="round" />
    <path d="M26.0498 10.8683C26.0498 16.4962 23.1865 19.0851 19.0498 21.05C14.9131 19.0851 12.0498 16.4962 12.0498 10.8683L12.0498 7.05005L26.0498 7.05005L26.0498 10.8683Z" id="Stroke-23" fill="none" fill-rule="evenodd" stroke="#ECBD1C" stroke-width="2" stroke-linecap="round" stroke-linejoin="round" />
  </g>
</svg>