<?xml version="1.0" encoding="utf-8"?>
<svg width="62.5px" height="62.5px" viewBox="0 0 62.5 62.5" version="1.1" xmlns:xlink="http://www.w3.org/1999/xlink" xmlns="http://www.w3.org/2000/svg">
  <g id="Group-61" transform="translate(1.25 1.25)">
    <path d="M36.6932 12.8152L29 11.001L33.9573 6L41.6505 7.8144C43.9384 8.35396 44.6833 9.91081 43.3143 11.2918C41.9454 12.6727 38.9811 13.3548 36.6932 12.8152Z" id="Stroke-1" fill="none" fill-rule="evenodd" stroke="#00C642" stroke-width="2.5" stroke-linecap="round" stroke-linejoin="round" />
    <path d="M29.6419 11L39.6603 13.0076C41.9386 13.4642 42.6804 14.7815 41.3172 15.95L40.6119 16.5545C39.2487 17.7231 36.2967 18.3002 34.0184 17.8436L24 15.836L29.6419 11Z" id="Stroke-3" fill="none" fill-rule="evenodd" stroke="#00C642" stroke-width="2.5" stroke-linecap="round" stroke-linejoin="round" />
    <path d="M42 5L40 7" id="Stroke-5" fill="none" fill-rule="evenodd" stroke="#00C642" stroke-width="2.5" stroke-linecap="round" stroke-linejoin="round" />
    <path d="M27 16L25 18" id="Stroke-7" fill="none" fill-rule="evenodd" stroke="#00C642" stroke-width="2.5" stroke-linecap="round" stroke-linejoin="round" />
    <path d="M33 4.94995L35 5.04995" id="Stroke-9" fill="none" fill-rule="evenodd" stroke="#00C642" stroke-width="2.5" stroke-linecap="round" stroke-linejoin="round" />
    <path d="M22 15.95L24 16.05" id="Stroke-11" fill="none" fill-rule="evenodd" stroke="#00C642" stroke-width="2.5" stroke-linecap="round" stroke-linejoin="round" />
    <path d="M56.3787 17.0478C49.1488 23.4763 33.4922 26.6515 21.409 24.1397C9.32566 21.628 5.39137 14.3806 12.6213 7.95212C19.8514 1.52377 35.5078 -1.65143 47.5912 0.860252C59.6743 3.37193 63.6086 10.6193 56.3787 17.0478Z" id="Stroke-13" fill="none" fill-rule="evenodd" stroke="#ffffff" stroke-width="2.5" stroke-linecap="round" stroke-linejoin="round" />
    <path d="M16.0002 29L16.0002 22" id="Stroke-15" fill="none" fill-rule="evenodd" stroke="#ffffff" stroke-width="2.5" stroke-linecap="round" stroke-linejoin="round" />
    <path d="M24.0002 33L24.0002 26" id="Stroke-17" fill="none" fill-rule="evenodd" stroke="#ffffff" stroke-width="2.5" stroke-linecap="round" stroke-linejoin="round" />
    <path d="M31.0002 33L31.0002 26" id="Stroke-19" fill="none" fill-rule="evenodd" stroke="#ffffff" stroke-width="2.5" stroke-linecap="round" stroke-linejoin="round" />
    <path d="M38.0002 33L38.0002 26" id="Stroke-21" fill="none" fill-rule="evenodd" stroke="#ffffff" stroke-width="2.5" stroke-linecap="round" stroke-linejoin="round" />
    <path d="M45.0002 31L45.0002 24" id="Stroke-23" fill="none" fill-rule="evenodd" stroke="#ffffff" stroke-width="2.5" stroke-linecap="round" stroke-linejoin="round" />
    <path d="M53.0002 27L53.0002 20" id="Stroke-25" fill="none" fill-rule="evenodd" stroke="#ffffff" stroke-width="2.5" stroke-linecap="round" stroke-linejoin="round" />
    <path d="M9 15.5148L9 22.5917C9 26.7707 13.4172 30.4895 21.4061 32.1437C33.484 34.6436 49.1463 31.4845 56.3779 25.0792C58.8263 22.9027 60 20.6266 60 18.4874L60 11" id="Stroke-27" fill="none" fill-rule="evenodd" stroke="#ffffff" stroke-width="2.5" stroke-linecap="round" stroke-linejoin="round" />
    <path d="M45 33.4043C37.4447 38.8804 23.2571 41.4512 12.1517 39.1661C0.318864 36.7314 -3.53386 29.706 3.54633 23.4745C4.12958 22.9612 4.76889 22.4692 5.45763 22" id="Stroke-29" fill="none" fill-rule="evenodd" stroke="#ffffff" stroke-width="2.5" stroke-linecap="round" stroke-linejoin="round" />
    <path d="M7.0002 45L7.0002 38" id="Stroke-31" fill="none" fill-rule="evenodd" stroke="#ffffff" stroke-width="2.5" stroke-linecap="round" stroke-linejoin="round" />
    <path d="M15.0002 47L15.0002 40" id="Stroke-33" fill="none" fill-rule="evenodd" stroke="#ffffff" stroke-width="2.5" stroke-linecap="round" stroke-linejoin="round" />
    <path d="M22.0002 47L22.0002 40" id="Stroke-35" fill="none" fill-rule="evenodd" stroke="#ffffff" stroke-width="2.5" stroke-linecap="round" stroke-linejoin="round" />
    <path d="M29.0002 47L29.0002 40" id="Stroke-37" fill="none" fill-rule="evenodd" stroke="#ffffff" stroke-width="2.5" stroke-linecap="round" stroke-linejoin="round" />
    <path d="M36.0002 45L36.0002 38" id="Stroke-39" fill="none" fill-rule="evenodd" stroke="#ffffff" stroke-width="2.5" stroke-linecap="round" stroke-linejoin="round" />
    <path d="M44.0002 42L44.0002 35" id="Stroke-41" fill="none" fill-rule="evenodd" stroke="#ffffff" stroke-width="2.5" stroke-linecap="round" stroke-linejoin="round" />
    <path d="M51 31.5473L51 32.0593C51 34.261 49.8263 36.6035 47.3779 38.8436C46.5071 39.6373 45.5226 40.3797 44.4373 41.0709C42.2539 42.4406 39.6793 43.6183 36.8649 44.5399C34.4796 45.3335 31.9176 45.948 29.2925 46.3576C26.8062 46.7544 24.2442 46.972 21.7201 46.9976C19.1455 47.0232 16.5835 46.844 14.1477 46.4472C13.5546 46.3448 12.974 46.2424 12.4061 46.1144C4.41722 44.4119 0 40.5845 0 36.2835L0 29.1536L0 29" id="Stroke-43" fill="none" fill-rule="evenodd" stroke="#ffffff" stroke-width="2.5" stroke-linecap="round" stroke-linejoin="round" />
    <path d="M18 51.1178C19.0929 51.5001 20.2809 51.8314 21.5566 52.1068C22.1222 52.2359 22.7003 52.3392 23.2909 52.4296C25.7164 52.8427 28.2549 53.0234 30.8312 52.9976C33.3446 52.9718 35.8957 52.7523 38.3714 52.3521C40.9854 51.939 43.5365 51.3194 45.9117 50.519C48.7142 49.5895 51.2779 48.4148 53.452 47.0335L53.452 47.0205C54.5327 46.3234 55.5255 45.5747 56.3927 44.7743C58.6799 42.6572 59.8486 40.4497 59.9869 38.3454C60.1628 35.5828 58.5668 33.001 55.425 31" id="Stroke-45" fill="none" fill-rule="evenodd" stroke="#ffffff" stroke-width="2.5" stroke-linecap="round" stroke-linejoin="round" />
    <path d="M16.0002 58L16.0002 53" id="Stroke-47" fill="none" fill-rule="evenodd" stroke="#ffffff" stroke-width="2.5" stroke-linecap="round" stroke-linejoin="round" />
    <path d="M24.0002 60L24.0002 53" id="Stroke-49" fill="none" fill-rule="evenodd" stroke="#ffffff" stroke-width="2.5" stroke-linecap="round" stroke-linejoin="round" />
    <path d="M31.0002 60L31.0002 53" id="Stroke-51" fill="none" fill-rule="evenodd" stroke="#ffffff" stroke-width="2.5" stroke-linecap="round" stroke-linejoin="round" />
    <path d="M38.0002 60L38.0002 53" id="Stroke-53" fill="none" fill-rule="evenodd" stroke="#ffffff" stroke-width="2.5" stroke-linecap="round" stroke-linejoin="round" />
    <path d="M45.0002 58L45.0002 51" id="Stroke-55" fill="none" fill-rule="evenodd" stroke="#ffffff" stroke-width="2.5" stroke-linecap="round" stroke-linejoin="round" />
    <path d="M53.0002 54L53.0002 47" id="Stroke-57" fill="none" fill-rule="evenodd" stroke="#ffffff" stroke-width="2.5" stroke-linecap="round" stroke-linejoin="round" />
    <path d="M9 49.5917C9 53.7707 13.4172 57.4895 21.4061 59.1437C33.484 61.6436 49.1463 58.4845 56.3779 52.0792C58.8263 49.9027 60 47.6266 60 45.4874L60 38" id="Stroke-59" fill="none" fill-rule="evenodd" stroke="#ffffff" stroke-width="2.5" stroke-linecap="round" stroke-linejoin="round" />
  </g>
</svg>