<?xml version="1.0" encoding="utf-8"?>
<svg width="56.5px" height="62.5px" viewBox="0 0 56.5 62.5" version="1.1" xmlns:xlink="http://www.w3.org/1999/xlink" xmlns="http://www.w3.org/2000/svg">
  <g id="Group-37" transform="translate(1.25 1.25)">
    <path d="M8 40.7489L10.6051 37.3389C11.5864 36.0556 12.9182 35.1389 14.4252 34.6989C16.8901 33.9778 20.7803 33 23.7359 33C28.4087 33 31.9134 36.6667 31.9134 36.6667L37.953 37.4611C41.2591 37.8889 40.0909 42.7778 37.7544 42.7778L24.9041 44" id="Stroke-1" fill="none" fill-rule="evenodd" stroke="#FFFFFF" stroke-width="2.5" stroke-linecap="round" stroke-linejoin="round" />
    <path d="M43.8754 35.7518L48.5011 26.4262C49.7038 24.1065 51.1031 23.6402 52.618 24.2347C53.6241 24.6427 54.1791 25.7501 53.9479 26.8226L50.8139 41.5803L39.2497 50.9059L17 56" id="Stroke-3" fill="none" fill-rule="evenodd" stroke="#FFFFFF" stroke-width="2.5" stroke-linecap="round" stroke-linejoin="round" />
    <path d="M17 56.1132L9.73366 60L0 42.8866L7.26634 39L17 56.1132Z" id="Stroke-5" fill="none" fill-rule="evenodd" stroke="#FFFFFF" stroke-width="2.5" stroke-linecap="round" stroke-linejoin="round" />
    <path d="M41 13.5C41 19.8513 35.8513 25 29.5 25C23.1487 25 18 19.8513 18 13.5C18 7.14869 23.1487 2 29.5 2C35.8513 2 41 7.14869 41 13.5Z" id="Stroke-7" fill="none" fill-rule="evenodd" stroke="#FFFFFF" stroke-width="2.5" stroke-linecap="round" stroke-linejoin="round" />
    <path d="M30.6667 13L26 13L26 8L30.6667 8C31.9554 8 33 9.11922 33 10.5C33 11.8808 31.9554 13 30.6667 13Z" id="Stroke-9" fill="none" fill-rule="evenodd" stroke="#00C642" stroke-width="2.5" stroke-linecap="round" stroke-linejoin="round" />
    <path d="M26 13L31.7143 13C32.9767 13 34 14.0744 34 15.4L34 16.6C34 17.9256 32.9767 19 31.7143 19L26 19L26 13Z" id="Stroke-11" fill="none" fill-rule="evenodd" stroke="#00C642" stroke-width="2.5" stroke-linecap="round" stroke-linejoin="round" />
    <path d="M29.0002 6L29.0002 8" id="Stroke-13" fill="none" fill-rule="evenodd" stroke="#00C642" stroke-width="2.5" stroke-linecap="round" stroke-linejoin="round" />
    <path d="M29.0002 21L29.0002 19" id="Stroke-15" fill="none" fill-rule="evenodd" stroke="#00C642" stroke-width="2.5" stroke-linecap="round" stroke-linejoin="round" />
    <path d="M25 8.00001L26 8.00001" id="Stroke-17" fill="none" fill-rule="evenodd" stroke="#00C642" stroke-width="2.5" stroke-linecap="round" stroke-linejoin="round" />
    <path d="M25 19L26 19" id="Stroke-19" fill="none" fill-rule="evenodd" stroke="#00C642" stroke-width="2.5" stroke-linecap="round" stroke-linejoin="round" />
    <path d="M12 14L14 14" id="Stroke-21" fill="none" fill-rule="evenodd" stroke="#FFFFFF" stroke-width="2.5" stroke-linecap="round" stroke-linejoin="round" />
    <path d="M13 9L15 10" id="Stroke-23" fill="none" fill-rule="evenodd" stroke="#FFFFFF" stroke-width="2.5" stroke-linecap="round" stroke-linejoin="round" />
    <path d="M15 4L17 5" id="Stroke-25" fill="none" fill-rule="evenodd" stroke="#FFFFFF" stroke-width="2.5" stroke-linecap="round" stroke-linejoin="round" />
    <path d="M19 0L20 2" id="Stroke-27" fill="none" fill-rule="evenodd" stroke="#FFFFFF" stroke-width="2.5" stroke-linecap="round" stroke-linejoin="round" />
    <path d="M46 19L44 18" id="Stroke-29" fill="none" fill-rule="evenodd" stroke="#FFFFFF" stroke-width="2.5" stroke-linecap="round" stroke-linejoin="round" />
    <path d="M44 24L42 23" id="Stroke-31" fill="none" fill-rule="evenodd" stroke="#FFFFFF" stroke-width="2.5" stroke-linecap="round" stroke-linejoin="round" />
    <path d="M40 28L39 26" id="Stroke-33" fill="none" fill-rule="evenodd" stroke="#FFFFFF" stroke-width="2.5" stroke-linecap="round" stroke-linejoin="round" />
    <path d="M13 20L15 19" id="Stroke-35" fill="none" fill-rule="evenodd" stroke="#FFFFFF" stroke-width="2.5" stroke-linecap="round" stroke-linejoin="round" />
  </g>
</svg>