<?xml version="1.0" encoding="utf-8"?>
<svg width="200px" height="50px" viewBox="0 0 200 50" version="1.1" xmlns:xlink="http://www.w3.org/1999/xlink" xmlns="http://www.w3.org/2000/svg">
  <defs>
    <radialGradient gradientUnits="objectBoundingBox" cx="-3842.717%" cy="-499.06512%" fx="-3842.717%" fy="-499.06512%" r="4763.947%" gradientTransform="translate(-38.42717,-4.990651),rotate(35.73243),translate(38.42717,4.990651)" id="gradient_1">
      <stop offset="0%" stop-color="#93D400" />
      <stop offset="100%" stop-color="#004D42" />
    </radialGradient>
    <radialGradient gradientUnits="objectBoundingBox" cx="-2735.815%" cy="-491.82755%" fx="-2735.815%" fy="-491.82755%" r="4488.62%" gradientTransform="translate(-27.358149,-4.9182754),scale(0.75,1),rotate(37.592937),translate(27.358149,4.9182754)" id="gradient_2">
      <stop offset="0%" stop-color="#93D400" />
      <stop offset="100%" stop-color="#004D42" />
    </radialGradient>
    <path d="M0 0L47.5409 0L47.5409 48.2306L0 48.2306L0 0Z" id="path_1" />
    <path d="M3.88286e-05 0.279608C-0.00223843 0.46747 0.0956837 0.563221 0.285835 0.565042L0.285835 0.565042L1.17321 0.574872L1.14778 2.70033C1.14588 2.8973 1.25519 2.99742 1.47191 2.99996L1.47191 2.99996C1.68483 3.00215 1.793 2.90458 1.79528 2.70725L1.79528 2.70725L1.82033 0.581789L2.70315 0.591619C2.89785 0.59344 2.99805 0.500237 2.99995 0.308006L2.99995 0.308006C3.0026 0.123057 2.9043 0.0283977 2.70998 0.0265774L2.70998 0.0265774L0.292287 0.000364073C0.29001 0.000364073 0.287732 0 0.285455 0L0.285455 0C0.0964428 0 0.00231609 0.0928387 3.88286e-05 0.279608" id="path_2" />
    <path d="M0.0258761 0.316765L4.51691e-05 2.66599C-0.0023983 2.8602 0.0942932 2.95839 0.290469 2.96089L0.290469 2.96089C0.490484 2.96304 0.58927 2.86737 0.591364 2.6728L0.591364 2.6728L0.608119 1.16709L1.6616 2.79033C1.71676 2.87633 1.81729 2.97845 1.9817 2.9806L1.9817 2.9806C2.15344 2.98239 2.24908 2.88672 2.30947 2.79821L2.30947 2.79821L3.39891 1.20435L3.38215 2.7054C3.38006 2.89962 3.48059 2.9978 3.67642 2.99995L3.67642 2.99995C3.87259 3.00246 3.97138 2.90643 3.97382 2.71221L3.97382 2.71221L4 0.362632L4 0.351165C3.99825 0.151933 3.89807 0.0415665 3.70539 0.0394165L3.70539 0.0394165C3.52352 0.0412081 3.43137 0.125058 3.33887 0.258715L3.33887 0.258715L1.98973 2.22918L0.688405 0.228257C0.599044 0.0920912 0.508984 0.00214999 0.326772 0L0.326772 0C0.324677 0 0.322583 0 0.320837 0L0.320837 0C0.128153 0 0.0283196 0.108216 0.0258761 0.316765" id="path_3" />
    <clipPath id="mask_1">
      <use xlink:href="#path_1" />
    </clipPath>
    <clipPath id="mask_2">
      <use xlink:href="#path_2" />
    </clipPath>
    <clipPath id="mask_3">
      <use xlink:href="#path_3" />
    </clipPath>
  </defs>
  <g id="Group-17">
    <g id="Group-10">
      <g id="Group-3">
        <path d="M0 0L47.5409 0L47.5409 48.2306L0 48.2306L0 0Z" id="Clip-2" fill="none" fill-rule="evenodd" stroke="none" />
        <g clip-path="url(#mask_1)">
          <path d="M42.8419 18.4962C42.774 18.4954 42.7112 18.4998 42.6445 18.5005C42.4065 18.4315 42.1563 18.3905 41.8962 18.3877L36.3319 18.3246C34.782 18.3072 33.5107 19.5492 33.4933 21.0988L33.4302 26.6604C33.4128 28.21 34.6553 29.4804 36.2052 29.4981L38.0208 29.5187L37.9667 34.2821C37.9304 37.4777 35.1163 39.1133 29.6372 39.0514L17.6174 38.9149C12.1384 38.853 9.41819 37.1546 9.4545 33.959L9.68973 13.1876C9.72052 10.4784 12.252 9.11732 17.2835 9.17453L23.8247 9.2483C26.6759 9.28065 28.0912 7.76807 28.1264 4.6423C28.1603 1.655 26.7797 0.11086 23.9289 0.0785092L17.2196 0.00276163C5.98283 -0.124668 0.343141 4.11917 0.245653 12.7335L0.00134194 34.2691C-0.101671 43.3694 5.54946 47.9494 16.9543 48.0788L30.1483 48.2279C41.4972 48.3565 47.307 43.9064 47.4104 34.806L47.5402 23.3433C47.5765 20.1477 46.0286 18.5321 42.8419 18.4962" id="Fill-1" fill="#006638" fill-rule="evenodd" stroke="none" />
        </g>
      </g>
      <path d="M94.3837 36.5018C94.3585 38.7249 92.445 39.8149 88.5317 39.7703L68.3644 39.5159C68.0285 39.5119 67.8075 39.3013 67.8122 38.8843L67.9286 28.6027L88.6553 28.8639C92.5686 28.9081 94.4572 30.0411 94.4311 32.3337L94.3837 36.5018ZM68.1351 10.4016C68.1398 9.98499 68.3656 9.77905 68.701 9.78299L88.3659 10.0315C92.2789 10.0761 94.1667 11.2782 94.1398 13.6406L94.0996 17.1834C94.0743 19.4065 92.1609 20.4965 88.3592 20.4535L68.0238 20.1971L68.1351 10.4016ZM99.5506 24.6098C102.089 22.6238 103.405 19.9983 103.44 16.8725L103.482 13.1904C103.574 5.06258 98.5327 0.975762 88.2456 0.85938L62.8786 0.545737C60.1955 0.515359 58.781 1.95811 58.7486 4.80654L58.3014 44.2655C58.2691 47.1135 59.6509 48.5882 62.3336 48.6186L88.763 48.9441C98.7142 49.0569 103.788 45.4317 103.872 37.9986L103.927 33.1357C103.966 29.662 102.489 26.797 99.5506 24.6098L99.5506 24.6098Z" id="Fill-4" fill="#006638" fill-rule="evenodd" stroke="none" />
      <path d="M121.788 1.23914C118.601 1.20324 116.962 2.7825 116.926 5.9781L116.485 44.8113C116.449 48.0069 117.996 49.6229 121.127 49.6584C124.314 49.6943 125.898 48.1139 125.934 44.9186L126.374 6.08541C126.41 2.88941 124.919 1.27465 121.788 1.23914" id="Fill-6" fill="#006638" fill-rule="evenodd" stroke="none" />
      <path d="M184.535 40.5112L170.225 25.3416L184.708 10.4288C186.349 8.78013 186.977 7.5366 187 5.59163C187.032 2.74321 185.427 1.26573 182.464 1.2322C180.787 1.21326 179.831 1.61922 178.361 3.13141L163.541 18.1791L148.506 2.86235C146.958 1.24719 145.901 0.81835 144.391 0.800991C141.204 0.76509 139.453 2.41299 139.417 5.6082C139.402 6.92826 139.725 8.04356 141.711 10.3586L156.249 25.114L141.259 40.3684C139.675 42.0873 138.99 43.2606 138.968 45.206C138.936 48.054 140.541 49.5315 143.615 49.5662C145.125 49.5836 146.19 49.3173 147.661 47.8055L162.879 32.2062L177.741 47.9377C179.287 49.623 180.29 49.9817 181.855 49.9994C185.042 50.0357 186.794 48.3878 186.832 45.0533C186.843 44.0808 186.689 42.8283 184.535 40.5112" id="Fill-8" fill="#00C642" fill-rule="evenodd" stroke="none" />
    </g>
    <g id="Group-13" transform="translate(192 1)">
      <path d="M3.88286e-05 0.279608C-0.00223843 0.46747 0.0956837 0.563221 0.285835 0.565042L0.285835 0.565042L1.17321 0.574872L1.14778 2.70033C1.14588 2.8973 1.25519 2.99742 1.47191 2.99996L1.47191 2.99996C1.68483 3.00215 1.793 2.90458 1.79528 2.70725L1.79528 2.70725L1.82033 0.581789L2.70315 0.591619C2.89785 0.59344 2.99805 0.500237 2.99995 0.308006L2.99995 0.308006C3.0026 0.123057 2.9043 0.0283977 2.70998 0.0265774L2.70998 0.0265774L0.292287 0.000364073C0.29001 0.000364073 0.287732 0 0.285455 0L0.285455 0C0.0964428 0 0.00231609 0.0928387 3.88286e-05 0.279608" id="Clip-12" fill="none" fill-rule="evenodd" stroke="none" />
      <g clip-path="url(#mask_2)">
        <path d="M3.88286e-05 0.279608C-0.00223843 0.46747 0.0956837 0.563221 0.285835 0.565042L0.285835 0.565042L1.17321 0.574872L1.14778 2.70033C1.14588 2.8973 1.25519 2.99742 1.47191 2.99996L1.47191 2.99996C1.68483 3.00215 1.793 2.90458 1.79528 2.70725L1.79528 2.70725L1.82033 0.581789L2.70315 0.591619C2.89785 0.59344 2.99805 0.500237 2.99995 0.308006L2.99995 0.308006C3.0026 0.123057 2.9043 0.0283977 2.70998 0.0265774L2.70998 0.0265774L0.292287 0.000364073C0.29001 0.000364073 0.287732 0 0.285455 0L0.285455 0C0.0964428 0 0.00231609 0.0928387 3.88286e-05 0.279608" id="Fill-11" fill="url(#gradient_1)" fill-rule="evenodd" stroke="none" />
      </g>
    </g>
    <g id="Group-16" transform="translate(196 1)">
      <path d="M0.0258761 0.316765L4.51691e-05 2.66599C-0.0023983 2.8602 0.0942932 2.95839 0.290469 2.96089L0.290469 2.96089C0.490484 2.96304 0.58927 2.86737 0.591364 2.6728L0.591364 2.6728L0.608119 1.16709L1.6616 2.79033C1.71676 2.87633 1.81729 2.97845 1.9817 2.9806L1.9817 2.9806C2.15344 2.98239 2.24908 2.88672 2.30947 2.79821L2.30947 2.79821L3.39891 1.20435L3.38215 2.7054C3.38006 2.89962 3.48059 2.9978 3.67642 2.99995L3.67642 2.99995C3.87259 3.00246 3.97138 2.90643 3.97382 2.71221L3.97382 2.71221L4 0.362632L4 0.351165C3.99825 0.151933 3.89807 0.0415665 3.70539 0.0394165L3.70539 0.0394165C3.52352 0.0412081 3.43137 0.125058 3.33887 0.258715L3.33887 0.258715L1.98973 2.22918L0.688405 0.228257C0.599044 0.0920912 0.508984 0.00214999 0.326772 0L0.326772 0C0.324677 0 0.322583 0 0.320837 0L0.320837 0C0.128153 0 0.0283196 0.108216 0.0258761 0.316765" id="Clip-15" fill="none" fill-rule="evenodd" stroke="none" />
      <g clip-path="url(#mask_3)">
        <path d="M0.0258761 0.316765L4.51691e-05 2.66599C-0.0023983 2.8602 0.0942932 2.95839 0.290469 2.96089L0.290469 2.96089C0.490484 2.96304 0.58927 2.86737 0.591364 2.6728L0.591364 2.6728L0.608119 1.16709L1.6616 2.79033C1.71676 2.87633 1.81729 2.97845 1.9817 2.9806L1.9817 2.9806C2.15344 2.98239 2.24908 2.88672 2.30947 2.79821L2.30947 2.79821L3.39891 1.20435L3.38215 2.7054C3.38006 2.89962 3.48059 2.9978 3.67642 2.99995L3.67642 2.99995C3.87259 3.00246 3.97138 2.90643 3.97382 2.71221L3.97382 2.71221L4 0.362632L4 0.351165C3.99825 0.151933 3.89807 0.0415665 3.70539 0.0394165L3.70539 0.0394165C3.52352 0.0412081 3.43137 0.125058 3.33887 0.258715L3.33887 0.258715L1.98973 2.22918L0.688405 0.228257C0.599044 0.0920912 0.508984 0.00214999 0.326772 0L0.326772 0C0.324677 0 0.322583 0 0.320837 0L0.320837 0C0.128153 0 0.0283196 0.108216 0.0258761 0.316765" id="Fill-14" fill="url(#gradient_2)" fill-rule="evenodd" stroke="none" />
      </g>
    </g>
  </g>
</svg>