<?xml version="1.0" encoding="utf-8"?>
<svg width="52px" height="52px" viewBox="0 0 52 52" version="1.1" xmlns:xlink="http://www.w3.org/1999/xlink" xmlns="http://www.w3.org/2000/svg">
  <defs>
    <linearGradient x1="1" y1="0.5" x2="1.3877788E-17" y2="0.5" id="gradient_1">
      <stop offset="0%" stop-color="#00CA20" />
      <stop offset="40.390076%" stop-color="#008D2C" />
      <stop offset="100%" stop-color="#006734" />
    </linearGradient>
  </defs>
  <g id="Group-3" transform="translate(1 1)">
    <path d="M25 50C38.8071 50 50 38.8071 50 25C50 11.1929 38.8071 0 25 0C11.1929 0 0 11.1929 0 25C0 38.8071 11.1929 50 25 50Z" id="Oval" fill="url(#gradient_1)" fill-rule="evenodd" stroke="none" />
    <g id="Group-2" transform="translate(13 13)">
      <g id="Group">
        <g id="akar-iconsplus">
          <path d="M0 0L24 0L24 24L0 24L0 0Z" id="ViewBox" fill="none" fill-rule="evenodd" stroke="none" />
          <path d="M12 20L12 12M12 12L12 4M12 12L20 12M12 12L4 12" id="Shape" fill="none" fill-rule="evenodd" stroke="#FFFFFF" stroke-width="2" stroke-linecap="round" />
        </g>
      </g>
    </g>
  </g>
</svg>