<?xml version="1.0" encoding="utf-8"?>
<svg width="41.09961px" height="36.100098px" viewBox="0 0 41.09961 36.100098" version="1.1" xmlns:xlink="http://www.w3.org/1999/xlink" xmlns="http://www.w3.org/2000/svg">
  <g id="Group-41" transform="translate(1 1)">
    <path d="M22.0498 15.55C22.0498 16.9307 20.9305 18.05 19.5498 18.05C18.1691 18.05 17.0498 16.9307 17.0498 15.55C17.0498 14.1694 18.1691 13.05 19.5498 13.05C20.9305 13.05 22.0498 14.1694 22.0498 15.55Z" id="Stroke-19" fill="none" fill-rule="evenodd" stroke="#ECBD1C" stroke-width="2" stroke-linecap="round" stroke-linejoin="round" />
    <path d="M20.05 18.05L20.05 34.05" id="Stroke-21" fill="none" fill-rule="evenodd" stroke="#ECBD1C" stroke-width="2" stroke-linecap="round" stroke-linejoin="round" />
    <path d="M32.3176 20.3178C31.3413 21.2941 29.7584 21.2941 28.782 20.3178C27.8057 19.3415 27.8057 17.7586 28.782 16.7822C29.7584 15.806 31.3413 15.806 32.3176 16.7822C33.2939 17.7586 33.2939 19.3415 32.3176 20.3178Z" id="Stroke-23" fill="none" fill-rule="evenodd" stroke="#ECBD1C" stroke-width="2" stroke-linecap="round" stroke-linejoin="round" />
    <path d="M25.05 24.05L25.05 34.05" id="Stroke-25" fill="none" fill-rule="evenodd" stroke="#ECBD1C" stroke-width="2" stroke-linecap="round" stroke-linejoin="round" />
    <path d="M11.3176 24.3178C10.3413 25.2941 8.7584 25.2941 7.782 24.3178C6.80574 23.3415 6.80574 21.7586 7.782 20.7822C8.7584 19.806 10.3413 19.806 11.3176 20.7822C12.2939 21.7586 12.2939 23.3415 11.3176 24.3178Z" id="Stroke-27" fill="none" fill-rule="evenodd" stroke="#ECBD1C" stroke-width="2" stroke-linecap="round" stroke-linejoin="round" />
    <path d="M14.05 28.05L14.05 34.05" id="Stroke-29" fill="none" fill-rule="evenodd" stroke="#ECBD1C" stroke-width="2" stroke-linecap="round" stroke-linejoin="round" />
    <path d="M11.0498 24.05L14.0498 27.05" id="Stroke-31" fill="none" fill-rule="evenodd" stroke="#ECBD1C" stroke-width="2" stroke-linecap="round" stroke-linejoin="round" />
    <path d="M28.0498 20.05L25.0498 23.05" id="Stroke-33" fill="none" fill-rule="evenodd" stroke="#ECBD1C" stroke-width="2" stroke-linecap="round" stroke-linejoin="round" />
    <path d="M0.0498047 3.05005C0.0498047 1.39188 1.39164 0.0500488 3.0498 0.0500488" id="Stroke-2" fill="none" fill-rule="evenodd" stroke="#FFFFFF" stroke-width="2" stroke-linecap="round" stroke-linejoin="round" />
    <path d="M39.0498 3.05005C39.0498 1.39188 37.708 0.0500488 36.0498 0.0500488" id="Stroke-3" fill="none" fill-rule="evenodd" stroke="#FFFFFF" stroke-width="2" stroke-linecap="round" stroke-linejoin="round" />
    <path d="M0.0498047 31.05C0.0498047 32.7082 1.39164 34.05 3.0498 34.05" id="Stroke-5" fill="none" fill-rule="evenodd" stroke="#FFFFFF" stroke-width="2" stroke-linecap="round" stroke-linejoin="round" />
    <path d="M39.0498 31.05C39.0498 32.7082 37.708 34.05 36.0498 34.05" id="Stroke-7" fill="none" fill-rule="evenodd" stroke="#FFFFFF" stroke-width="2" stroke-linecap="round" stroke-linejoin="round" />
    <path d="M0.05 3.05005L0.05 32.05" id="Stroke-9" fill="none" fill-rule="evenodd" stroke="#FFFFFF" stroke-width="2" stroke-linecap="round" stroke-linejoin="round" />
    <path d="M37.0498 34.05L3.0498 34.05" id="Stroke-11" fill="none" fill-rule="evenodd" stroke="#FFFFFF" stroke-width="2" stroke-linecap="round" stroke-linejoin="round" />
    <path d="M39.05 3.05005L39.05 32.05" id="Stroke-13" fill="none" fill-rule="evenodd" stroke="#FFFFFF" stroke-width="2" stroke-linecap="round" stroke-linejoin="round" />
    <path d="M3.0498 0.05L37.0498 0.05" id="Stroke-15" fill="none" fill-rule="evenodd" stroke="#FFFFFF" stroke-width="2" stroke-linecap="round" stroke-linejoin="round" />
    <path d="M0.0498047 8.05L39.0498 8.05" id="Stroke-17" fill="none" fill-rule="evenodd" stroke="#FFFFFF" stroke-width="2" stroke-linecap="round" stroke-linejoin="round" />
    <path d="M34.041 4.05L34.059 4.05" id="Stroke-35" fill="none" fill-rule="evenodd" stroke="#FFFFFF" stroke-width="2" stroke-linecap="round" stroke-linejoin="round" />
    <path d="M30.041 4.05L30.059 4.05" id="Stroke-37" fill="none" fill-rule="evenodd" stroke="#FFFFFF" stroke-width="2" stroke-linecap="round" stroke-linejoin="round" />
    <path d="M26.041 4.05L26.059 4.05" id="Stroke-39" fill="none" fill-rule="evenodd" stroke="#FFFFFF" stroke-width="2" stroke-linecap="round" stroke-linejoin="round" />
  </g>
</svg>