<?xml version="1.0" encoding="utf-8"?>
<svg width="62px" height="62px" viewBox="0 0 62 62" version="1.1" xmlns:xlink="http://www.w3.org/1999/xlink" xmlns="http://www.w3.org/2000/svg">
  <g id="Group-28" transform="translate(1 1)">
    <path d="M50.7692 14L60 27.8L30 60L0 27.8L9.23077 14L50.7692 14Z" id="Stroke-1" fill="none" fill-rule="evenodd" stroke="#006638" stroke-width="2" stroke-linecap="round" stroke-linejoin="round" />
    <path d="M7 28.0002L54 28.0002" id="Stroke-2" fill="none" fill-rule="evenodd" stroke="#006638" stroke-width="2" stroke-linecap="round" stroke-linejoin="round" />
    <path d="M14 19.2224L19.7143 27L30 17L40.2857 27L46 19.2224" id="Stroke-3" fill="none" fill-rule="evenodd" stroke="#006638" stroke-width="2" stroke-linecap="round" stroke-linejoin="round" />
    <path d="M32 52L40 28" id="Stroke-4" fill="none" fill-rule="evenodd" stroke="#006638" stroke-width="2" stroke-linecap="round" stroke-linejoin="round" />
    <path d="M20 28L28 52" id="Stroke-5" fill="none" fill-rule="evenodd" stroke="#006638" stroke-width="2" stroke-linecap="round" stroke-linejoin="round" />
    <path d="M47 0L47 1" id="Stroke-6" fill="none" fill-rule="evenodd" stroke="#00C642" stroke-width="2" stroke-linecap="round" stroke-linejoin="round" />
    <path d="M51 3.0002L50 3.0002" id="Stroke-8" fill="none" fill-rule="evenodd" stroke="#00C642" stroke-width="2" stroke-linecap="round" stroke-linejoin="round" />
    <path d="M47 7L47 6" id="Stroke-9" fill="none" fill-rule="evenodd" stroke="#00C642" stroke-width="2" stroke-linecap="round" stroke-linejoin="round" />
    <path d="M44 3.0002L45 3.0002" id="Stroke-10" fill="none" fill-rule="evenodd" stroke="#00C642" stroke-width="2" stroke-linecap="round" stroke-linejoin="round" />
    <path d="M12 54L11 55" id="Stroke-11" fill="none" fill-rule="evenodd" stroke="#00C642" stroke-width="2" stroke-linecap="round" stroke-linejoin="round" />
    <path d="M12 59L11 58" id="Stroke-12" fill="none" fill-rule="evenodd" stroke="#00C642" stroke-width="2" stroke-linecap="round" stroke-linejoin="round" />
    <path d="M7 59L8 58" id="Stroke-13" fill="none" fill-rule="evenodd" stroke="#00C642" stroke-width="2" stroke-linecap="round" stroke-linejoin="round" />
    <path d="M7 54L8 55" id="Stroke-14" fill="none" fill-rule="evenodd" stroke="#00C642" stroke-width="2" stroke-linecap="round" stroke-linejoin="round" />
  </g>
</svg>